<svg width="128" height="128" viewBox="0 0 128 128" xmlns="http://www.w3.org/2000/svg">
    <defs>
        <radialGradient id="getsugaSpace" cx="50%" cy="50%" r="50%">
            <stop offset="0%" style="stop-color:#1e293b" />
            <stop offset="80%" style="stop-color:#0f172a" />
            <stop offset="100%" style="stop-color:#020617" />
        </radialGradient>
        
        <linearGradient id="getsugaEnergy" x1="0%" y1="0%" x2="100%" y2="100%">
            <stop offset="0%" style="stop-color:#f0f9ff" />
            <stop offset="20%" style="stop-color:#dbeafe" />
            <stop offset="50%" style="stop-color:#60a5fa" />
            <stop offset="80%" style="stop-color:#2563eb" />
            <stop offset="100%" style="stop-color:#1e40af" />
        </linearGradient>
        
        <filter id="getsugaGlow">
            <feGaussianBlur stdDeviation="4" result="coloredBlur"/>
            <feMerge> 
                <feMergeNode in="coloredBlur"/>
                <feMergeNode in="SourceGraphic"/>
            </feMerge>
        </filter>
    </defs>
    
    <!-- 背景 -->
    <circle cx="64" cy="64" r="60" fill="url(#getsugaSpace)"/>
    
    <!-- 月牙天衝の軌跡パターン -->
    <g fill="none" stroke="url(#getsugaEnergy)" stroke-width="3" opacity="0.6">
        <path d="M20,64 Q40,30 64,64 Q88,98 108,64" stroke-linecap="round">
            <animate attributeName="stroke-dasharray" values="0,200;100,100;200,0;100,100;0,200" dur="3s" repeatCount="indefinite"/>
        </path>
        <path d="M64,20 Q98,40 64,64 Q30,88 64,108" stroke-linecap="round">
            <animate attributeName="stroke-dasharray" values="200,0;100,100;0,200;100,100;200,0" dur="3.5s" repeatCount="indefinite"/>
        </path>
    </g>
    
    <!-- 地獄蝶の舞い -->
    <g opacity="0.25" fill="url(#getsugaEnergy)">
        <path d="M35,35 Q37,30 40,35 Q37,40 35,35" transform="rotate(25 37 35)">
            <animateTransform attributeName="transform" type="rotate" values="25 37 35;45 37 35;25 37 35" dur="4s" repeatCount="indefinite"/>
            <animate attributeName="opacity" values="0.2;0.4;0.2" dur="2s" repeatCount="indefinite"/>
        </path>
        <path d="M88,30 Q90,25 93,30 Q90,35 88,30" transform="rotate(-25 90 30)">
            <animateTransform attributeName="transform" type="rotate" values="-25 90 30;-5 90 30;-25 90 30" dur="5s" repeatCount="indefinite"/>
            <animate attributeName="opacity" values="0.4;0.2;0.4" dur="3s" repeatCount="indefinite"/>
        </path>
        <path d="M30,90 Q32,85 35,90 Q32,95 30,90" transform="rotate(15 32 90)">
            <animateTransform attributeName="transform" type="rotate" values="15 32 90;35 32 90;15 32 90" dur="6s" repeatCount="indefinite"/>
            <animate attributeName="opacity" values="0.2;0.35;0.2" dur="2.5s" repeatCount="indefinite"/>
        </path>
        <path d="M93,95 Q95,90 98,95 Q95,100 93,95" transform="rotate(-15 95 95)">
            <animateTransform attributeName="transform" type="rotate" values="-15 95 95;5 95 95;-15 95 95" dur="4.5s" repeatCount="indefinite"/>
            <animate attributeName="opacity" values="0.35;0.2;0.35" dur="1.8s" repeatCount="indefinite"/>
        </path>
    </g>
    
    <!-- R字の斬撃形状 -->
    <g fill="url(#getsugaEnergy)" filter="url(#getsugaGlow)">
        <!-- 刀身軌跡のR -->
        <path d="M44,36 Q41,34 44,38 L44,84 Q47,87 44,84 L41,84 Q38,81 41,84 L41,40 Q38,38 41,40 Z" opacity="0.95"/>
        
        <!-- 鍔の軌跡 -->
        <path d="M44,36 Q41,34 44,38 L67,38 Q70,41 67,38 L67,41 Q70,44 67,41 L46,41 Q43,44 46,41 Z" opacity="0.9"/>
        
        <!-- 中段斬撃 -->
        <path d="M44,58 Q41,56 44,60 L62,60 Q65,63 62,60 L62,63 Q65,66 62,63 L46,63 Q43,66 46,63 Z" opacity="0.85"/>
        
        <!-- 右縦斬撃 -->
        <path d="M67,38 Q64,36 67,40 L67,61 Q70,64 67,61 L64,61 Q61,58 64,61 L64,40 Q61,38 64,40 Z" opacity="0.8"/>
        
        <!-- 斜め大斬撃 -->
        <path d="M64,61 Q67,58 64,63 L83,87 Q86,90 83,87 L80,90 Q77,87 80,90 L61,66 Q58,63 61,66 Z" opacity="1"/>
    </g>
    
    <!-- 三日月の霊圧集中 -->
    <g fill="url(#getsugaEnergy)" opacity="0.7">
        <path d="M76,22 Q88,27 85,42 Q82,27 76,22">
            <animate attributeName="opacity" values="0.5;0.9;0.5" dur="1.5s" repeatCount="indefinite"/>
        </path>
        <path d="M42,102 Q30,97 33,82 Q36,97 42,102">
            <animate attributeName="opacity" values="0.9;0.5;0.9" dur="1.8s" repeatCount="indefinite"/>
        </path>
    </g>
    
    <!-- 霊子の集中流れ -->
    <g fill="url(#getsugaEnergy)" opacity="0.6">
        <circle cx="28" cy="45" r="1.5">
            <animate attributeName="opacity" values="0;1;0" dur="1s" repeatCount="indefinite" begin="0s"/>
            <animate attributeName="r" values="1;2;1" dur="1s" repeatCount="indefinite"/>
        </circle>
        <circle cx="95" cy="80" r="1.5">
            <animate attributeName="opacity" values="0;1;0" dur="1s" repeatCount="indefinite" begin="0.25s"/>
            <animate attributeName="r" values="2;1;2" dur="1s" repeatCount="indefinite"/>
        </circle>
        <circle cx="25" cy="85" r="1.5">
            <animate attributeName="opacity" values="0;1;0" dur="1s" repeatCount="indefinite" begin="0.5s"/>
            <animate attributeName="r" values="1;2;1" dur="1s" repeatCount="indefinite"/>
        </circle>
        <circle cx="100" cy="35" r="1.5">
            <animate attributeName="opacity" values="0;1;0" dur="1s" repeatCount="indefinite" begin="0.75s"/>
            <animate attributeName="r" values="2;1;2" dur="1s" repeatCount="indefinite"/>
        </circle>
    </g>
    
    <!-- 斬撃の余韻 -->
    <g fill="none" stroke="url(#getsugaEnergy)" stroke-width="1" opacity="0.4">
        <path d="M85,40 Q100,55 85,70 Q70,55 85,40" stroke-linecap="round">
            <animate attributeName="stroke-dasharray" values="0,60;30,30;60,0;30,30;0,60" dur="2.5s" repeatCount="indefinite"/>
        </path>
        <path d="M40,85 Q25,70 40,55 Q55,70 40,85" stroke-linecap="round">
            <animate attributeName="stroke-dasharray" values="60,0;30,30;0,60;30,30;60,0" dur="3s" repeatCount="indefinite"/>
        </path>
    </g>
</svg>
